<mxfile host="app.diagrams.net" modified="2021-09-09T19:47:02.289Z" agent="5.0 (Windows NT 10.0; Win64; x64) AppleWebKit/537.36 (KHTML, like Gecko) Chrome/93.0.4577.63 Safari/537.36" etag="mNTZrs6-ID0aCw9oN1CI" version="15.0.5" type="github">
  <diagram id="axwEpDV1RIHjbpaLkCuD" name="Page-1">
    <mxGraphModel dx="976" dy="587" grid="1" gridSize="10" guides="1" tooltips="1" connect="1" arrows="1" fold="1" page="1" pageScale="1" pageWidth="850" pageHeight="1100" math="0" shadow="0">
      <root>
        <mxCell id="0" />
        <mxCell id="1" parent="0" />
        <mxCell id="VBtJpH_RyAijywXcilcF-3" value="" style="edgeStyle=orthogonalEdgeStyle;rounded=0;orthogonalLoop=1;jettySize=auto;html=1;" edge="1" parent="1" source="VBtJpH_RyAijywXcilcF-1" target="VBtJpH_RyAijywXcilcF-2">
          <mxGeometry relative="1" as="geometry" />
        </mxCell>
        <mxCell id="VBtJpH_RyAijywXcilcF-1" value="Start" style="ellipse;whiteSpace=wrap;html=1;" vertex="1" parent="1">
          <mxGeometry x="340" y="10" width="120" height="80" as="geometry" />
        </mxCell>
        <mxCell id="VBtJpH_RyAijywXcilcF-2" value="Declare a List called UserInput, a value called Sum" style="rounded=0;whiteSpace=wrap;html=1;" vertex="1" parent="1">
          <mxGeometry x="340" y="120" width="120" height="60" as="geometry" />
        </mxCell>
      </root>
    </mxGraphModel>
  </diagram>
</mxfile>
